<?xml version="1.0" encoding="UTF-8" standalone="no"?>
<!-- Created with Inkscape (http://www.inkscape.org/) -->

<svg
   width="587.47522mm"
   height="587.47528mm"
   viewBox="0 0 587.47522 587.47528"
   version="1.1"
   id="svg254"
   sodipodi:docname="logo-svg.svg"
   inkscape:version="1.2 (dc2aedaf03, 2022-05-15)"
   xmlns:inkscape="http://www.inkscape.org/namespaces/inkscape"
   xmlns:sodipodi="http://sodipodi.sourceforge.net/DTD/sodipodi-0.dtd"
   xmlns="http://www.w3.org/2000/svg"
   xmlns:svg="http://www.w3.org/2000/svg">
  <sodipodi:namedview
     id="namedview256"
     pagecolor="#ffffff"
     bordercolor="#666666"
     borderopacity="1.0"
     inkscape:showpageshadow="2"
     inkscape:pageopacity="0.0"
     inkscape:pagecheckerboard="0"
     inkscape:deskcolor="#d1d1d1"
     inkscape:document-units="mm"
     showgrid="false"
     inkscape:zoom="0.37381005"
     inkscape:cx="1111.5271"
     inkscape:cy="897.51465"
     inkscape:window-width="1920"
     inkscape:window-height="991"
     inkscape:window-x="-9"
     inkscape:window-y="-9"
     inkscape:window-maximized="1"
     inkscape:current-layer="layer1" />
  <defs
     id="defs251" />
  <g
     inkscape:label="Layer 1"
     inkscape:groupmode="layer"
     id="layer1"
     transform="translate(252.58703,181.3786)">
    <g
       id="g1059"
       inkscape:export-filename="C:\Users\flufe\Pictures\MV\icon-512x512.png"
       inkscape:export-xdpi="22.136763"
       inkscape:export-ydpi="22.136763"
       transform="translate(-115.00449,-560.19851)">
      <rect
         style="fill:#292c33;fill-opacity:1;stroke:#b847e1;stroke-width:4.46589;stroke-linecap:round;stroke-linejoin:round"
         id="rect845"
         width="488.99567"
         height="488.99564"
         x="446.06689"
         y="-222.49059"
         ry="35.400501"
         transform="rotate(75)" />
      <path
         style="fill:#b847e1;fill-opacity:1;stroke:#b847e1;stroke-width:26.4583;stroke-linejoin:round;stroke-miterlimit:4;stroke-dasharray:none;stroke-opacity:1"
         class="cls-2"
         d="m 335.4327,550.20133 q -4.46352,-4.86569 -11.69459,-4.86569 -8.92968,0 -14.45683,4.32594 -11.05165,51.36621 -25.72544,104.35432 -14.67379,52.9881 -31.67856,107.61396 h -1.70127 q -2.55058,-9.18897 -6.59077,-22.16679 -4.04019,-12.97781 -8.08038,-26.78111 -4.04548,-13.78744 -7.86606,-27.03513 -3.82058,-13.24768 -6.3791,-22.44195 l -26.36311,-96.78724 q -3.41048,-11.35327 -7.44009,-16.2216 -3.11414,-3.7465 -8.36082,-4.60375 c 0.16139,-0.26458 0.32279,-0.52917 0.48418,-0.79375 q -4.74133,-2.60086 -12.32691,-2.59821 a 48.114479,48.114479 0 0 0 -9.53822,1.05833 q -5.13821,1.05834 -8.43492,3.14325 -5.50598,14.67644 -12.47246,32.27917 -6.96648,17.60273 -14.67114,37.71636 -7.70467,20.10833 -15.77446,41.70627 -8.069792,21.59794 -16.139592,43.79912 h -1.46579 q -6.24416,-16.75606 -13.02279,-35.2081 -6.77862,-18.45204 -13.938251,-37.30625 -7.14376,-18.86479 -14.30603,-37.09459 -7.16227,-18.22979 -14.10758,-34.57839 -6.614591,-15.50194 -23.4764805,-15.50723 -6.97442,0 -12.47246,2.51354 -5.49804,2.51354 -8.4349195,5.45042 -1.47108,19.70352 -3.11943,43.5901 -1.64836,23.88659 -3.31259,48.62248 -1.651,24.73854 -2.93423,48.62248 -1.28323,23.88394 -2.38125,43.5901 -1.10066,19.70881 -1.64835,33.53329 -0.54769,13.82448 -0.55033,18.02341 0,7.14375 3.29935,10.89555 3.29935,3.75179 11.37708,3.77295 a 32.152166,32.152166 0 0 0 7.5194595,-0.83873 49.212499,49.212499 0 0 0 5.6859,-1.67481 q 1.4605,-30.17837 2.93423,-56.58644 1.47373,-26.40805 2.93423,-52.18376 1.4605005,-25.7757 2.7516605,-52.81347 1.29117,-27.03777 2.38125,-58.47292 h 1.45521 q 8.802689,25.57197 23.10871,64.55833 14.30602,38.98636 34.112741,85.92608 a 11.980333,11.980333 0 0 0 6.42408,6.69924 q 4.57994,2.10344 10.45369,2.0955 a 25.042812,25.042812 0 0 0 9.35302,-1.67745 q 4.214812,-1.66688 6.786562,-3.77032 11.00667,-28.49826 19.80671,-51.76571 8.80004,-23.26746 15.95702,-41.70627 7.14375,-18.43882 12.47246,-33.11261 5.17789,-14.2875 9.14929,-25.81275 1.96321,7.49564 4.23333,15.66333 5.95048,21.36775 12.75554,44.33888 6.80508,22.97112 14.02291,46.23064 7.22312,23.25423 14.02292,43.79647 6.79981,20.54225 12.75823,36.77709 5.94783,16.2216 9.78958,25.41323 4.67519,11.35327 20.40996,11.35327 a 38.398979,38.398979 0 0 0 11.26861,-1.6219 q 5.31283,-1.62454 7.44272,-3.78354 6.7945,-16.22425 14.6685,-38.39104 7.874,-22.16679 15.73477,-46.23064 7.86078,-24.05327 14.88282,-48.39229 7.02204,-24.33902 12.54389,-44.60875 5.51921,-20.27502 8.92969,-35.14725 3.41048,-14.87223 3.41842,-20.83329 0,-9.1784 -4.46352,-14.04938 z"
         id="path10-8-9-2"
         inkscape:export-filename="C:\Users\flufe\Pictures\MV\1x\logo_mv.png"
         inkscape:export-xdpi="4.6087065"
         inkscape:export-ydpi="4.6087065" />
    </g>
  </g>
</svg>
